<?xml version="1.0" encoding="iso-8859-1"?>
<!-- Generator: Adobe Illustrator 18.0.0, SVG Export Plug-In . SVG Version: 6.00 Build 0)  -->
<!DOCTYPE svg PUBLIC "-//W3C//DTD SVG 1.1//EN" "http://www.w3.org/Graphics/SVG/1.1/DTD/svg11.dtd">
<svg version="1.1" id="Capa_1" xmlns="http://www.w3.org/2000/svg" xmlns:xlink="http://www.w3.org/1999/xlink" x="0px" y="0px"
	 viewBox="0 0 442 442" style="enable-background:new 0 0 442 442;" xml:space="preserve">
<g>
	<path d="M179.046,93.365h84.845c2.761,0,5-2.239,5-5s-2.239-5-5-5h-84.845c-2.761,0-5,2.239-5,5S176.285,93.365,179.046,93.365z"/>
	<path d="M122.977,120.046H319.96c2.761,0,5-2.239,5-5s-2.239-5-5-5H122.977c-2.761,0-5,2.239-5,5S120.215,120.046,122.977,120.046z
		"/>
	<path d="M122.977,146.728H319.96c2.761,0,5-2.239,5-5s-2.239-5-5-5H122.977c-2.761,0-5,2.239-5,5S120.215,146.728,122.977,146.728z
		"/>
	<path d="M122.977,173.409H319.96c2.761,0,5-2.239,5-5s-2.239-5-5-5H122.977c-2.761,0-5,2.239-5,5S120.215,173.409,122.977,173.409z
		"/>
	<path d="M122.977,200.091H319.96c2.761,0,5-2.239,5-5s-2.239-5-5-5H122.977c-2.761,0-5,2.239-5,5S120.215,200.091,122.977,200.091z
		"/>
	<path d="M122.977,226.772H319.96c2.761,0,5-2.239,5-5s-2.239-5-5-5H122.977c-2.761,0-5,2.239-5,5S120.215,226.772,122.977,226.772z
		"/>
	<path d="M122.977,253.454H319.96c2.761,0,5-2.239,5-5s-2.239-5-5-5H122.977c-2.761,0-5,2.239-5,5S120.215,253.454,122.977,253.454z
		"/>
	<path d="M122.977,280.135H319.96c2.761,0,5-2.239,5-5s-2.239-5-5-5H122.977c-2.761,0-5,2.239-5,5S120.215,280.135,122.977,280.135z
		"/>
	<path d="M122.977,306.816H319.96c2.761,0,5-2.239,5-5s-2.239-5-5-5H122.977c-2.761,0-5,2.239-5,5S120.215,306.816,122.977,306.816z
		"/>
	<path d="M232.008,323.498H122.977c-2.761,0-5,2.239-5,5s2.239,5,5,5h109.031c2.761,0,5-2.239,5-5S234.769,323.498,232.008,323.498z
		"/>
	<path d="M385.536,68.464l-67-67C317.598,0.527,316.326,0,315,0H60c-2.761,0-5,2.239-5,5v432c0,2.761,2.239,5,5,5h322
		c2.761,0,5-2.239,5-5V72C387,70.674,386.473,69.402,385.536,68.464z M320,17.071L369.929,67H320V17.071z M65,432V10h245v62
		c0,2.761,2.239,5,5,5h62v355H65z"/>
	<path d="M329.39,357.142c-0.717-1.979-2.596-3.298-4.702-3.298s-3.985,1.319-4.702,3.298l-15.366,42.453
		c-0.939,2.597,0.403,5.463,3,6.403c0.562,0.203,1.136,0.3,1.701,0.3c2.046,0,3.966-1.265,4.702-3.3l4.001-11.055h13.326
		l4.001,11.055c0.94,2.596,3.805,3.938,6.403,3c2.597-0.94,3.939-3.807,3-6.403L329.39,357.142z M321.645,381.943l3.043-8.409
		l3.044,8.409H321.645z"/>
	<path d="M342.466,304.771l-83.996,83.996c-1.953,1.953-1.953,5.119,0,7.071c0.977,0.976,2.256,1.464,3.536,1.464
		s2.559-0.488,3.536-1.464l83.996-83.996c1.953-1.953,1.953-5.119,0-7.071C347.584,302.819,344.419,302.819,342.466,304.771z"/>
</g>
<g>
</g>
<g>
</g>
<g>
</g>
<g>
</g>
<g>
</g>
<g>
</g>
<g>
</g>
<g>
</g>
<g>
</g>
<g>
</g>
<g>
</g>
<g>
</g>
<g>
</g>
<g>
</g>
<g>
</g>
</svg>
