<?xml version="1.0" encoding="iso-8859-1"?>
<!-- Generator: Adobe Illustrator 19.0.0, SVG Export Plug-In . SVG Version: 6.00 Build 0)  -->
<svg version="1.1" id="Layer_1" xmlns="http://www.w3.org/2000/svg" xmlns:xlink="http://www.w3.org/1999/xlink" x="0px" y="0px"
	 viewBox="0 0 512 512" style="enable-background:new 0 0 512 512;" xml:space="preserve">
<g>
	<g>
		<path d="M501.801,82.274H10.199C4.566,82.274,0,86.841,0,92.474v327.053c0,5.633,4.566,10.199,10.199,10.199h491.602
			c5.632,0,10.199-4.566,10.199-10.199V92.474C512,86.842,507.433,82.274,501.801,82.274z M491.602,409.328H20.398V102.673h471.203
			V409.328z"/>
	</g>
</g>
<g>
	<g>
		<path d="M457.944,125.451H54.056c-5.633,0-10.199,4.566-10.199,10.199v240.701c0,5.633,4.566,10.199,10.199,10.199h403.888
			c5.632,0,10.199-4.566,10.199-10.199V135.65C468.143,130.017,463.576,125.451,457.944,125.451z M447.745,366.152H64.255v-22.479
			l130.177-130.178l103.828,103.828c1.913,1.912,4.507,2.987,7.212,2.987c2.705,0,5.299-1.075,7.212-2.987l55.161-55.162
			l79.901,79.9V366.152z M447.745,313.212l-72.688-72.687c-1.913-1.912-4.507-2.987-7.212-2.987s-5.298,1.075-7.212,2.987
			l-55.161,55.161L201.643,191.859c-3.982-3.983-10.441-3.983-14.424,0L64.255,314.824V145.849h383.49V313.212z"/>
	</g>
</g>
<g>
	<g>
		<path d="M303.936,168.287c-19.683,0-35.697,16.014-35.697,35.697s16.014,35.697,35.697,35.697
			c19.683,0,35.697-16.014,35.697-35.697S323.62,168.287,303.936,168.287z M303.936,219.283c-8.436,0-15.299-6.863-15.299-15.299
			s6.863-15.299,15.299-15.299c8.436,0,15.299,6.863,15.299,15.299S312.372,219.283,303.936,219.283z"/>
	</g>
</g>
<g>
	<g>
		<path d="M279.02,320.183l-53.035-53.036c-3.983-3.983-10.441-3.983-14.425,0c-3.983,3.983-3.983,10.441,0,14.425l53.036,53.036
			c1.992,1.992,4.602,2.987,7.212,2.987s5.22-0.995,7.212-2.987C283.002,330.625,283.002,324.167,279.02,320.183z"/>
	</g>
</g>
<g>
	<g>
		<path d="M206.097,247.26l-3.061-3.061c-3.983-3.983-10.441-3.983-14.425,0c-3.983,3.983-3.983,10.441,0,14.425l3.061,3.061
			c1.992,1.992,4.602,2.987,7.212,2.987s5.221-0.995,7.212-2.987C210.08,257.701,210.08,251.243,206.097,247.26z"/>
	</g>
</g>
<g>
</g>
<g>
</g>
<g>
</g>
<g>
</g>
<g>
</g>
<g>
</g>
<g>
</g>
<g>
</g>
<g>
</g>
<g>
</g>
<g>
</g>
<g>
</g>
<g>
</g>
<g>
</g>
<g>
</g>
</svg>
